<svg width="218" height="52" viewBox="0 0 218 52" fill="none" xmlns="http://www.w3.org/2000/svg">
<path d="M46.6857 44.6843H5.32142C4.76869 44.6843 4.32142 44.237 4.32142 43.6843V18.2526C3.15052 17.572 2.17201 16.4372 1.57924 15.0515C0.973767 13.6218 0.839001 12.0847 1.20131 10.7204C1.58705 9.26144 2.48646 8.16866 3.73158 7.64132C6.20326 6.58565 9.26869 8.19405 10.5665 11.2273C10.7042 11.5437 10.8175 11.8679 10.9064 12.1941H41.1007C41.1896 11.8679 41.3029 11.5437 41.4415 11.2234C42.1456 9.56515 43.4083 8.26534 44.9025 7.66378C46.0411 7.20675 47.2413 7.19894 48.2785 7.64327C50.7492 8.69308 51.714 12.0153 50.4288 15.0495C50.4279 15.0505 50.4279 15.0515 50.4279 15.0515C49.8351 16.4372 48.8566 17.572 47.6857 18.2526V43.6843C47.6857 44.237 47.2384 44.6843 46.6857 44.6843ZM6.32142 42.6843H45.6857V17.6374C45.6857 17.236 45.9259 16.8728 46.296 16.7165C47.2609 16.3073 48.0968 15.4157 48.587 14.2683C49.4288 12.2839 48.9279 10.0925 47.4933 9.48214C46.7921 9.18233 46.1036 9.33663 45.6495 9.51925C44.6583 9.91769 43.7726 10.8493 43.2804 12.0114C43.089 12.4519 42.965 12.8903 42.9083 13.3239C42.8429 13.822 42.4191 14.1941 41.9171 14.1941H10.09C9.589 14.1941 9.16517 13.823 9.09877 13.3259C9.04017 12.8884 8.91615 12.4489 8.72963 12.0183C7.86342 9.99386 5.97181 8.85812 4.51478 9.48116C3.84779 9.76339 3.35853 10.3855 3.13392 11.2321C2.88588 12.1696 2.98744 13.2478 3.42006 14.2683C3.90931 15.4138 4.74525 16.3073 5.71107 16.7165C6.08119 16.8728 6.32142 17.236 6.32142 17.6374V42.6843Z" fill="#1999B2"/>
<path d="M22.9904 40.7612C20.7784 40.7612 18.9796 38.9624 18.9796 36.7505C18.9796 36.1978 19.4269 35.7505 19.9796 35.7505C20.5323 35.7505 20.9796 36.1978 20.9796 36.7505C20.9796 37.8589 21.882 38.7612 22.9904 38.7612C24.0997 38.7612 25.0021 37.8589 25.0021 36.7505C25.0021 36.1978 25.4493 35.7505 26.0021 35.7505C26.5548 35.7505 27.0021 36.1978 27.0021 36.7505C27.0021 38.9624 25.2023 40.7612 22.9904 40.7612Z" fill="#1999B2"/>
<path d="M29.0177 40.7612C26.8019 40.7612 24.9991 38.9634 24.9991 36.7524V32.4458C24.9991 31.8931 25.4464 31.4458 25.9991 31.4458C26.5519 31.4458 26.9991 31.8931 26.9991 32.4458V36.7524C26.9991 37.8599 27.9044 38.7612 29.0177 38.7612C30.1251 38.7612 31.0265 37.8599 31.0265 36.7524C31.0265 36.1997 31.4738 35.7524 32.0265 35.7524C32.5792 35.7524 33.0265 36.1997 33.0265 36.7524C33.0265 38.9634 31.2286 40.7612 29.0177 40.7612Z" fill="#1999B2"/>
<path d="M26.0021 33.4487C24.0782 33.4487 22.5128 31.8833 22.5128 29.9595C22.5128 28.0356 24.0782 26.4712 26.0021 26.4712C27.9259 26.4712 29.4904 28.0356 29.4904 29.9595C29.4904 31.8833 27.9259 33.4487 26.0021 33.4487ZM26.0021 28.4712C25.1808 28.4712 24.5128 29.1392 24.5128 29.9595C24.5128 30.7808 25.1808 31.4487 26.0021 31.4487C26.8224 31.4487 27.4904 30.7808 27.4904 29.9595C27.4904 29.1392 26.8224 28.4712 26.0021 28.4712Z" fill="#1999B2"/>
<path d="M33.9406 25.3813C31.7384 25.3813 29.9464 23.5894 29.9464 21.3872C29.9464 19.1841 31.7384 17.3921 33.9406 17.3921C36.1437 17.3921 37.9357 19.1841 37.9357 21.3872C37.9357 23.5894 36.1437 25.3813 33.9406 25.3813ZM33.9406 19.3921C32.8409 19.3921 31.9464 20.2866 31.9464 21.3872C31.9464 22.4868 32.8409 23.3813 33.9406 23.3813C35.0411 23.3813 35.9357 22.4868 35.9357 21.3872C35.9357 20.2866 35.0411 19.3921 33.9406 19.3921Z" fill="#1999B2"/>
<path d="M18.0646 25.3813C15.8624 25.3813 14.0704 23.5894 14.0704 21.3872C14.0704 19.1841 15.8624 17.3921 18.0646 17.3921C20.2677 17.3921 22.0597 19.1841 22.0597 21.3872C22.0597 23.5894 20.2677 25.3813 18.0646 25.3813ZM18.0646 19.3921C16.965 19.3921 16.0704 20.2866 16.0704 21.3872C16.0704 22.4868 16.965 23.3813 18.0646 23.3813C19.1652 23.3813 20.0597 22.4868 20.0597 21.3872C20.0597 20.2866 19.1652 19.3921 18.0646 19.3921Z" fill="#1999B2"/>
<path d="M60.6585 34C59.9985 34 59.3885 33.84 58.8285 33.52C58.2885 33.2 57.8585 32.77 57.5385 32.23C57.2185 31.67 57.0585 31.06 57.0585 30.4V28.69H59.4885V30.4C59.4885 30.72 59.5985 31 59.8185 31.24C60.0585 31.46 60.3385 31.57 60.6585 31.57H75.0585C75.3785 31.57 75.6485 31.46 75.8685 31.24C76.1085 31 76.2285 30.72 76.2285 30.4V12.4H78.6585V30.4C78.6585 31.06 78.4985 31.67 78.1785 32.23C77.8585 32.77 77.4185 33.2 76.8585 33.52C76.3185 33.84 75.7185 34 75.0585 34H60.6585ZM85.5667 34C84.9067 34 84.2967 33.84 83.7367 33.52C83.1967 33.18 82.7567 32.74 82.4167 32.2C82.0967 31.64 81.9367 31.03 81.9367 30.37V16.6H84.3967V30.37C84.3967 30.69 84.5067 30.97 84.7267 31.21C84.9667 31.43 85.2467 31.54 85.5667 31.54H96.0067C96.3267 31.54 96.6067 31.43 96.8467 31.21C97.0867 30.97 97.2067 30.69 97.2067 30.37V16.6H99.6667V30.37C99.6667 31.03 99.4967 31.64 99.1567 32.2C98.8367 32.74 98.3967 33.18 97.8367 33.52C97.2967 33.84 96.6867 34 96.0067 34H85.5667ZM102.973 34V16.6H117.073C117.733 16.6 118.333 16.77 118.873 17.11C119.433 17.43 119.873 17.87 120.193 18.43C120.533 18.97 120.703 19.57 120.703 20.23V34H118.243V20.23C118.243 19.91 118.123 19.64 117.883 19.42C117.663 19.18 117.393 19.06 117.073 19.06H106.633C106.313 19.06 106.033 19.18 105.793 19.42C105.553 19.64 105.433 19.91 105.433 20.23V34H102.973ZM126.681 40.87V38.38H137.541C137.861 38.38 138.131 38.26 138.351 38.02C138.591 37.8 138.711 37.53 138.711 37.21V34H127.101C126.441 34 125.831 33.84 125.271 33.52C124.731 33.18 124.291 32.74 123.951 32.2C123.631 31.64 123.471 31.03 123.471 30.37V20.23C123.471 19.57 123.631 18.97 123.951 18.43C124.291 17.87 124.731 17.43 125.271 17.11C125.831 16.77 126.441 16.6 127.101 16.6H137.541C138.221 16.6 138.831 16.77 139.371 17.11C139.931 17.43 140.371 17.87 140.691 18.43C141.011 18.97 141.171 19.57 141.171 20.23V37.21C141.171 37.89 141.011 38.5 140.691 39.04C140.371 39.6 139.931 40.04 139.371 40.36C138.831 40.7 138.221 40.87 137.541 40.87H126.681ZM127.101 31.54H137.541C137.861 31.54 138.131 31.43 138.351 31.21C138.591 30.97 138.711 30.69 138.711 30.37V20.23C138.711 19.91 138.591 19.64 138.351 19.42C138.131 19.18 137.861 19.06 137.541 19.06H127.101C126.781 19.06 126.501 19.18 126.261 19.42C126.041 19.64 125.931 19.91 125.931 20.23V30.37C125.931 30.69 126.041 30.97 126.261 31.21C126.501 31.43 126.781 31.54 127.101 31.54ZM144.34 34V16.6H167.32C168 16.6 168.61 16.77 169.15 17.11C169.71 17.43 170.15 17.87 170.47 18.43C170.79 18.97 170.95 19.57 170.95 20.23V34H168.52V20.23C168.52 19.91 168.4 19.64 168.16 19.42C167.92 19.18 167.64 19.06 167.32 19.06H160.09C159.77 19.06 159.49 19.18 159.25 19.42C159.03 19.64 158.92 19.91 158.92 20.23V34H156.43V20.23C156.43 19.91 156.31 19.64 156.07 19.42C155.85 19.18 155.58 19.06 155.26 19.06H148C147.68 19.06 147.4 19.18 147.16 19.42C146.94 19.64 146.83 19.91 146.83 20.23V34H144.34ZM173.666 34V10.9H176.126V16.6H187.766C188.426 16.6 189.026 16.77 189.566 17.11C190.126 17.43 190.566 17.87 190.886 18.43C191.226 18.97 191.396 19.57 191.396 20.23V34H188.936V20.23C188.936 19.91 188.816 19.64 188.576 19.42C188.356 19.18 188.086 19.06 187.766 19.06H177.326C177.006 19.06 176.726 19.18 176.486 19.42C176.246 19.64 176.126 19.91 176.126 20.23V34H173.666ZM197.421 34C196.761 34 196.151 33.84 195.591 33.52C195.051 33.18 194.611 32.74 194.271 32.2C193.951 31.64 193.791 31.03 193.791 30.37V24.07H209.031V20.23C209.031 19.91 208.911 19.64 208.671 19.42C208.451 19.18 208.181 19.06 207.861 19.06H193.791V16.6H207.861C208.541 16.6 209.151 16.77 209.691 17.11C210.251 17.43 210.691 17.87 211.011 18.43C211.351 18.97 211.521 19.57 211.521 20.23V34H197.421ZM197.421 31.54H209.031V26.53H196.251V30.37C196.251 30.69 196.361 30.97 196.581 31.21C196.821 31.43 197.101 31.54 197.421 31.54Z" fill="#FAC0B2"/>
</svg>
