<svg width="63" height="60" viewBox="0 0 63 60" fill="none" xmlns="http://www.w3.org/2000/svg">
<path d="M9.22674 18.5373L21.3274 15.5334L15.143 32.3475L9.72327 19.1529L20.1737 16.4606L15.1392 30.4464L11.1555 19.8695L19.0749 17.3876L15.2997 28.1853L12.973 20.5853L17.8118 18.6746L15.3497 25.7188L14.0749 21.1997L16.4933 19.7562L15.6201 23.3547L15.0663 21.6602L9.22674 18.5373Z" stroke="#FAF7F0" stroke-width="1.70473" stroke-linecap="square" stroke-linejoin="bevel"/>
<path d="M22.6788 3.30179L12.354 13.7012L29.3531 10.9961L23.1207 4.12304L14.388 12.6182L27.9212 10.485L23.3983 5.35567L16.8067 11.3289L26.1043 10.0262L23.1811 6.7948L19.391 10.2448L24.3981 9.92673L23.2932 7.77084L21.9748 8.95521L23.2963 9.3123L22.6788 3.30179Z" stroke="#FAF7F0" stroke-width="1.70473" stroke-linecap="square" stroke-linejoin="bevel"/>
<path d="M22.7337 3.1475L20.2628 5.87559L23.1836 7.92517L24.828 4.68487L22.7337 3.1475Z" stroke="#FAF7F0" stroke-width="1.70473" stroke-linecap="square" stroke-linejoin="bevel"/>
<path d="M27.5219 3.49776L38.8272 15.3449L43.045 5.67683L27.1338 2.05981L28.8996 4.41994L38.3282 13.4962L42.1106 6.19248L29.2271 3.13475L37.8302 12.1612L41.1211 6.75962L31.0454 4.2616L37.3875 10.9289L39.5263 7.27657L33.0839 5.38802L36.9453 9.95349L38.4815 7.68967L35.0676 6.6687L36.5581 8.97799L37.3268 8.15437L36.2249 7.48855L27.5219 3.49776Z" stroke="#FAF7F0" stroke-width="1.70473" stroke-linecap="square" stroke-linejoin="bevel"/>
<path d="M37.8069 34.8209L38.3697 34.2032" stroke="#FAF7F0" stroke-width="1.70473" stroke-linecap="square" stroke-linejoin="bevel"/>
<path d="M9.23486 18.0932L21.3191 15.125L15.277 32.9341L9.23486 18.0932Z" fill="#FAF7F0" stroke="#FAF7F0"/>
<path d="M22.8297 2.26294L30.3824 11.1675L11.249 14.6304L22.8297 2.26294Z" fill="#FAF7F0"/>
<path d="M21.9529 25.5137L17.7949 37.149L33.9072 39.3652L21.9529 25.5137Z" fill="#FAF7F0" stroke="#FAF7F0"/>
<path d="M30.8395 11.2501L22.9519 2.27366L10.4856 14.9381L30.8395 11.2501Z" stroke="#FAF7F0" stroke-width="1.70473" stroke-linecap="square" stroke-linejoin="bevel"/>
<path d="M25.8511 1.27344L43.4739 5.23102L39.4458 15.6197L25.8511 1.27344Z" fill="#FAF7F0"/>
<path d="M51.0263 26.5029L30.4354 29.8273H29.8789L38.7831 38.3757L51.0263 26.5029Z" fill="#FAF7F0"/>
<path d="M39.3243 16.4231L43.6488 5.1105L25.2603 1.03589L39.3243 16.4231Z" stroke="#FAF7F0" stroke-width="1.70473" stroke-linecap="square" stroke-linejoin="bevel"/>
<path d="M51.5299 23.0401L39.9492 25.0189L45.4878 8.19922L51.5299 23.0401Z" fill="#FAF7F0" stroke="#FAF7F0"/>
<path d="M38.9305 39.3403L30.0512 29.8006L51.7806 25.9558L38.9305 39.3403Z" stroke="#FAF7F0" stroke-width="1.70473" stroke-linecap="square" stroke-linejoin="bevel"/>
<path d="M39.2329 25.5694L45.5789 7.00802L51.9957 23.4378L39.2329 25.5694Z" stroke="#FAF7F0" stroke-width="1.70473" stroke-linecap="square" stroke-linejoin="bevel"/>
<path d="M22.1523 15.1206L9.0062 18.2294L14.9267 34.249L22.1523 15.1206Z" stroke="#FAF7F0" stroke-width="1.70473" stroke-linecap="square" stroke-linejoin="bevel"/>
<path d="M16.9149 37.5337L21.7319 24.8328L35.5202 39.9636L16.9149 37.5337Z" stroke="#FAF7F0" stroke-width="1.70473" stroke-linecap="square" stroke-linejoin="bevel"/>
<path d="M4.48242 58.0586C3.3418 58.0586 2.49805 57.7578 1.95117 57.1562C1.4043 56.5547 1.13086 55.6191 1.13086 54.3496C1.13086 51.877 2.25391 50.6406 4.5 50.6406C4.82812 50.6406 5.14648 50.6758 5.45508 50.7461C5.76367 50.8125 6.01367 50.8965 6.20508 50.998C6.39648 51.0996 6.49219 51.1973 6.49219 51.291C6.49219 51.3496 6.4707 51.4277 6.42773 51.5254C6.38867 51.623 6.3418 51.709 6.28711 51.7832C6.23242 51.8574 6.18359 51.8945 6.14062 51.8945C6.12109 51.8945 6.06641 51.8691 5.97656 51.8184C5.77344 51.709 5.56055 51.6172 5.33789 51.543C5.11523 51.4688 4.84375 51.4316 4.52344 51.4316C3.68359 51.4316 3.06445 51.666 2.66602 52.1348C2.27148 52.5996 2.07422 53.3418 2.07422 54.3613C2.07422 55.3574 2.26953 56.0918 2.66016 56.5645C3.05469 57.0332 3.66211 57.2676 4.48242 57.2676C4.82617 57.2676 5.12109 57.2266 5.36719 57.1445C5.61328 57.0625 5.84961 56.9609 6.07617 56.8398C6.18555 56.7812 6.25195 56.752 6.27539 56.752C6.31836 56.752 6.36719 56.7891 6.42188 56.8633C6.48047 56.9375 6.53125 57.0215 6.57422 57.1152C6.61719 57.2051 6.63867 57.2695 6.63867 57.3086C6.63867 57.4062 6.53906 57.5156 6.33984 57.6367C6.14453 57.7539 5.88086 57.8535 5.54883 57.9355C5.2207 58.0176 4.86523 58.0586 4.48242 58.0586ZM10.0723 58.0176C9.91602 58.0176 9.80273 58.0039 9.73242 57.9766C9.66211 57.9453 9.62695 57.9004 9.62695 57.8418C9.62695 57.8145 9.63672 57.7676 9.65625 57.7012L12.123 50.8516C12.1621 50.7383 12.3008 50.6816 12.5391 50.6816H12.8438C13.082 50.6816 13.2207 50.7383 13.2598 50.8516L15.7266 57.707C15.7461 57.75 15.7559 57.7949 15.7559 57.8418C15.7559 57.959 15.6094 58.0176 15.3164 58.0176H15.2285C14.9863 58.0176 14.8457 57.9629 14.8066 57.8535L14.1973 56.1426H11.1387L10.541 57.8535C10.5059 57.9629 10.3672 58.0176 10.125 58.0176H10.0723ZM13.916 55.3516L12.8262 52.252C12.7949 52.166 12.7695 52.0684 12.75 51.959C12.7305 51.8496 12.7129 51.7441 12.6973 51.6426H12.6738C12.627 51.9043 12.5742 52.1074 12.5156 52.252L11.4258 55.3516H13.916ZM19.752 58.0176C19.6035 58.0176 19.4961 58 19.4297 57.9648C19.3633 57.9258 19.3301 57.8672 19.3301 57.7891V50.916C19.3301 50.7598 19.4707 50.6816 19.752 50.6816H20.1211C20.3516 50.6816 20.498 50.7461 20.5605 50.875L22.5293 54.291L22.7988 54.9473L23.0684 54.3496L25.043 50.875C25.1094 50.7461 25.2539 50.6816 25.4766 50.6816H25.8223C26.0996 50.6816 26.2383 50.7598 26.2383 50.916V57.7891C26.2383 57.9414 26.0996 58.0176 25.8223 58.0176H25.752C25.6035 58.0176 25.4961 58 25.4297 57.9648C25.3633 57.9258 25.3301 57.8672 25.3301 57.7891V52.1816L25.3125 52.2285L23.2383 55.832C23.2109 55.8789 23.1797 55.9141 23.1445 55.9375C23.1094 55.957 23.0645 55.9668 23.0098 55.9668H22.5938C22.4883 55.9668 22.4102 55.9219 22.3594 55.832L20.2383 52.123V57.7891C20.2383 57.9414 20.0996 58.0176 19.8223 58.0176H19.752ZM31.1074 58.0176C30.8262 58.0176 30.6855 57.9414 30.6855 57.7891V51.0215C30.6855 50.9121 30.7109 50.834 30.7617 50.7871C30.8125 50.7363 30.8926 50.7109 31.002 50.7109H32.7539C33.5859 50.7109 34.2109 50.8574 34.6289 51.1504C35.0508 51.4434 35.2617 51.9102 35.2617 52.5508C35.2617 52.9844 35.1562 53.3496 34.9453 53.6465C34.7383 53.9395 34.4453 54.1602 34.0664 54.3086V54.3496C34.2695 54.4199 34.4355 54.5566 34.5645 54.7598C34.6973 54.959 34.8438 55.2559 35.0039 55.6504L35.8184 57.707C35.8379 57.7773 35.8477 57.8262 35.8477 57.8535C35.8477 57.9629 35.7012 58.0176 35.4082 58.0176H35.3027C35.1973 58.0176 35.1055 58.0039 35.0273 57.9766C34.9531 57.9453 34.9062 57.9043 34.8867 57.8535L34.0957 55.8086C33.9941 55.543 33.875 55.3359 33.7383 55.1875C33.6016 55.0391 33.4395 54.9355 33.252 54.877C33.0645 54.8184 32.8281 54.7891 32.543 54.7891H31.6055V57.7891C31.6055 57.9414 31.4668 58.0176 31.1895 58.0176H31.1074ZM32.9766 53.998C33.2227 53.998 33.4473 53.9395 33.6504 53.8223C33.8574 53.7051 34.0195 53.5488 34.1367 53.3535C34.2578 53.1543 34.3184 52.9434 34.3184 52.7207C34.3184 52.3105 34.1934 52.0059 33.9434 51.8066C33.6934 51.6035 33.3477 51.502 32.9062 51.502H31.6055V53.998H32.9766ZM39.873 58C39.7637 58 39.6836 57.9746 39.6328 57.9238C39.582 57.873 39.5566 57.7949 39.5566 57.6895V51.0215C39.5566 50.9121 39.582 50.834 39.6328 50.7871C39.6836 50.7363 39.7637 50.7109 39.873 50.7109H43.5059C43.5801 50.7109 43.6328 50.7344 43.6641 50.7812C43.6992 50.8281 43.7168 50.9082 43.7168 51.0215V51.1914C43.7168 51.2969 43.6992 51.375 43.6641 51.4258C43.6328 51.4766 43.5801 51.502 43.5059 51.502H40.4766V53.875H43.1953C43.2695 53.875 43.3223 53.9004 43.3535 53.9512C43.3887 54.002 43.4062 54.082 43.4062 54.1914V54.3496C43.4062 54.459 43.3887 54.5391 43.3535 54.5898C43.3223 54.6367 43.2695 54.6602 43.1953 54.6602H40.4766V57.209H43.5176C43.5918 57.209 43.6445 57.2344 43.6758 57.2852C43.7109 57.332 43.7285 57.4102 43.7285 57.5195V57.6895C43.7285 57.7949 43.7109 57.873 43.6758 57.9238C43.6445 57.9746 43.5918 58 43.5176 58H39.873ZM48.1113 58.0176C47.9629 58.0176 47.8555 58 47.7891 57.9648C47.7227 57.9258 47.6895 57.8672 47.6895 57.7891V50.916C47.6895 50.7598 47.8301 50.6816 48.1113 50.6816H48.3281C48.4375 50.6816 48.5234 50.6973 48.5859 50.7285C48.6523 50.7598 48.7109 50.8105 48.7617 50.8809L52.0898 55.9023L52.4004 56.4883V50.916C52.4004 50.7598 52.5371 50.6816 52.8105 50.6816H52.8926C53.166 50.6816 53.3027 50.7598 53.3027 50.916V57.7891C53.3027 57.8672 53.2695 57.9258 53.2031 57.9648C53.1367 58 53.0332 58.0176 52.8926 58.0176H52.6816C52.584 58.0176 52.5059 58.0059 52.4473 57.9824C52.3887 57.959 52.3438 57.9219 52.3125 57.8711L48.8789 52.6914L48.5977 52.1523V57.7891C48.5977 57.9414 48.459 58.0176 48.1816 58.0176H48.1113ZM59.584 58.0176C59.4395 58.0176 59.334 58 59.2676 57.9648C59.2012 57.9258 59.168 57.8672 59.168 57.7891V51.502H57.1641C57.0898 51.502 57.0371 51.4766 57.0059 51.4258C56.9746 51.375 56.959 51.2969 56.959 51.1914V51.0215C56.959 50.9121 56.9746 50.834 57.0059 50.7871C57.0371 50.7363 57.0898 50.7109 57.1641 50.7109H62.0508C62.125 50.7109 62.1777 50.7363 62.209 50.7871C62.2402 50.834 62.2559 50.9121 62.2559 51.0215V51.1914C62.2559 51.2969 62.2402 51.375 62.209 51.4258C62.1777 51.4766 62.125 51.502 62.0508 51.502H60.0879V57.7891C60.0879 57.9414 59.9473 58.0176 59.666 58.0176H59.584Z" fill="#FAF7F0"/>
</svg>
