<svg width="45" height="40" viewBox="0 0 45 40" fill="none" xmlns="http://www.w3.org/2000/svg">
<path d="M1.22674 18.0876L13.3274 15.1608L7.14302 31.5437L1.72327 18.6874L12.1737 16.0641L7.13917 29.6913L3.15552 19.3856L11.0749 16.9674L7.29968 27.4882L4.97299 20.083L9.81183 18.2214L7.34972 25.085L6.07485 20.6817L8.49328 19.2753L7.62008 22.7815L7.06634 21.1304L1.22674 18.0876Z" stroke="black" stroke-width="1.70473" stroke-linecap="square" stroke-linejoin="bevel"/>
<path d="M14.6788 3.24273L4.35404 13.3755L21.3531 10.7397L15.1207 4.04293L6.38798 12.3203L19.9212 10.2418L15.3983 5.24395L8.80673 11.064L18.1043 9.79469L15.1811 6.64618L11.391 10.0077L16.3981 9.69781L15.2932 7.5972L13.9748 8.7512L15.2963 9.09913L14.6788 3.24273Z" stroke="black" stroke-width="1.70473" stroke-linecap="square" stroke-linejoin="bevel"/>
<path d="M14.7337 3.09245L12.2628 5.75059L15.1836 7.74761L16.828 4.5904L14.7337 3.09245Z" stroke="black" stroke-width="1.70473" stroke-linecap="square" stroke-linejoin="bevel"/>
<path d="M19.5219 3.43379L30.8272 14.9772L35.045 5.55699L19.1338 2.03271L20.8996 4.33233L30.3282 13.1758L34.1106 6.05942L21.2271 3.08009L29.8302 11.8751L33.1211 6.61202L23.0454 4.17804L29.3875 10.6744L31.5263 7.1157L25.0839 5.27558L28.9453 9.72399L30.4815 7.51821L27.0676 6.52342L28.5581 8.7735L29.3268 7.971L28.2249 7.32225L19.5219 3.43379Z" stroke="black" stroke-width="1.70473" stroke-linecap="square" stroke-linejoin="bevel"/>
<path d="M29.8069 33.9538L30.3697 33.352" stroke="black" stroke-width="1.70473" stroke-linecap="square" stroke-linejoin="bevel"/>
<path d="M1.23486 17.6548L13.3191 14.7627L7.27697 32.1152L1.23486 17.6548Z" fill="black" stroke="black"/>
<path d="M14.8297 2.23047L22.3824 10.9067L3.24902 14.2808L14.8297 2.23047Z" fill="black"/>
<path d="M13.9529 24.885L9.79492 36.2219L25.9072 38.3814L13.9529 24.885Z" fill="black" stroke="black"/>
<path d="M22.8395 10.9874L14.9519 2.24109L2.48557 14.5808L22.8395 10.9874Z" stroke="black" stroke-width="1.70473" stroke-linecap="square" stroke-linejoin="bevel"/>
<path d="M17.8511 1.26636L35.4739 5.12246L31.4458 15.2447L17.8511 1.26636Z" fill="black"/>
<path d="M43.0263 25.8491L22.4354 29.0882H21.8789L30.7831 37.4174L43.0263 25.8491Z" fill="black"/>
<path d="M31.3243 16.0278L35.6488 5.00529L17.2603 1.03516L31.3243 16.0278Z" stroke="black" stroke-width="1.70473" stroke-linecap="square" stroke-linejoin="bevel"/>
<path d="M43.5299 22.475L31.9492 24.4031L37.4878 8.01465L43.5299 22.475Z" fill="black" stroke="black"/>
<path d="M30.9305 38.3573L22.0512 29.0622L43.7805 25.316L30.9305 38.3573Z" stroke="black" stroke-width="1.70473" stroke-linecap="square" stroke-linejoin="bevel"/>
<path d="M31.2329 24.9393L37.5789 6.8538L43.9957 22.8623L31.2329 24.9393Z" stroke="black" stroke-width="1.70473" stroke-linecap="square" stroke-linejoin="bevel"/>
<path d="M14.1523 14.7585L1.0062 17.7876L6.92674 33.3964L14.1523 14.7585Z" stroke="black" stroke-width="1.70473" stroke-linecap="square" stroke-linejoin="bevel"/>
<path d="M8.91488 36.5969L13.7319 24.2217L27.5202 38.9646L8.91488 36.5969Z" stroke="black" stroke-width="1.70473" stroke-linecap="square" stroke-linejoin="bevel"/>
</svg>
