<svg width="218" height="52" viewBox="0 0 218 52" fill="none" xmlns="http://www.w3.org/2000/svg">
<path d="M46.6857 44.6844H5.32142C4.76869 44.6844 4.32142 44.2371 4.32142 43.6844V18.2528C3.15052 17.5721 2.17201 16.4373 1.57924 15.0516C0.973767 13.6219 0.839001 12.0848 1.20131 10.7205C1.58705 9.26156 2.48646 8.16879 3.73158 7.64144C6.20326 6.58578 9.26869 8.19418 10.5665 11.2274C10.7042 11.5438 10.8175 11.868 10.9064 12.1942H41.1007C41.1896 11.868 41.3029 11.5438 41.4415 11.2235C42.1456 9.56527 43.4083 8.26546 44.9025 7.6639C46.0411 7.20687 47.2413 7.19906 48.2785 7.64339C50.7492 8.6932 51.714 12.0155 50.4288 15.0496C50.4279 15.0506 50.4279 15.0516 50.4279 15.0516C49.8351 16.4373 48.8566 17.5721 47.6857 18.2528V43.6844C47.6857 44.2371 47.2384 44.6844 46.6857 44.6844ZM6.32142 42.6844H45.6857V17.6375C45.6857 17.2362 45.9259 16.8729 46.296 16.7166C47.2609 16.3075 48.0968 15.4159 48.587 14.2684C49.4288 12.284 48.9279 10.0926 47.4933 9.48226C46.7921 9.18246 46.1036 9.33675 45.6495 9.51937C44.6583 9.91781 43.7726 10.8494 43.2804 12.0116C43.089 12.452 42.965 12.8905 42.9083 13.3241C42.8429 13.8221 42.4191 14.1942 41.9171 14.1942H10.09C9.589 14.1942 9.16517 13.8231 9.09877 13.326C9.04017 12.8885 8.91615 12.4491 8.72963 12.0184C7.86342 9.99398 5.97181 8.85824 4.51478 9.48129C3.84779 9.76351 3.35853 10.3856 3.13392 11.2323C2.88588 12.1698 2.98744 13.2479 3.42006 14.2684C3.90931 15.4139 4.74525 16.3075 5.71107 16.7166C6.08119 16.8729 6.32142 17.2362 6.32142 17.6375V42.6844Z" fill="#1999B2"/>
<path d="M22.9905 40.7615C20.7786 40.7615 18.9797 38.9627 18.9797 36.7508C18.9797 36.1981 19.427 35.7508 19.9797 35.7508C20.5325 35.7508 20.9797 36.1981 20.9797 36.7508C20.9797 37.8592 21.8821 38.7615 22.9905 38.7615C24.0999 38.7615 25.0022 37.8592 25.0022 36.7508C25.0022 36.1981 25.4495 35.7508 26.0022 35.7508C26.5549 35.7508 27.0022 36.1981 27.0022 36.7508C27.0022 38.9627 25.2024 40.7615 22.9905 40.7615Z" fill="#1999B2"/>
<path d="M29.0178 40.7615C26.802 40.7615 24.9993 38.9637 24.9993 36.7527V32.4461C24.9993 31.8934 25.4465 31.4461 25.9993 31.4461C26.552 31.4461 26.9993 31.8934 26.9993 32.4461V36.7527C26.9993 37.8602 27.9045 38.7615 29.0178 38.7615C30.1252 38.7615 31.0266 37.8602 31.0266 36.7527C31.0266 36.2 31.4739 35.7527 32.0266 35.7527C32.5793 35.7527 33.0266 36.2 33.0266 36.7527C33.0266 38.9637 31.2288 40.7615 29.0178 40.7615Z" fill="#1999B2"/>
<path d="M26.0022 33.449C24.0784 33.449 22.5129 31.8836 22.5129 29.9598C22.5129 28.0359 24.0784 26.4715 26.0022 26.4715C27.926 26.4715 29.4905 28.0359 29.4905 29.9598C29.4905 31.8836 27.926 33.449 26.0022 33.449ZM26.0022 28.4715C25.1809 28.4715 24.5129 29.1395 24.5129 29.9598C24.5129 30.7811 25.1809 31.449 26.0022 31.449C26.8225 31.449 27.4905 30.7811 27.4905 29.9598C27.4905 29.1395 26.8225 28.4715 26.0022 28.4715Z" fill="#1999B2"/>
<path d="M33.9407 25.3817C31.7385 25.3817 29.9465 23.5897 29.9465 21.3875C29.9465 19.1844 31.7385 17.3924 33.9407 17.3924C36.1438 17.3924 37.9358 19.1844 37.9358 21.3875C37.9358 23.5897 36.1438 25.3817 33.9407 25.3817ZM33.9407 19.3924C32.8411 19.3924 31.9465 20.2869 31.9465 21.3875C31.9465 22.4871 32.8411 23.3817 33.9407 23.3817C35.0413 23.3817 35.9358 22.4871 35.9358 21.3875C35.9358 20.2869 35.0413 19.3924 33.9407 19.3924Z" fill="#1999B2"/>
<path d="M18.0647 25.3817C15.8625 25.3817 14.0706 23.5897 14.0706 21.3875C14.0706 19.1844 15.8625 17.3924 18.0647 17.3924C20.2678 17.3924 22.0598 19.1844 22.0598 21.3875C22.0598 23.5897 20.2678 25.3817 18.0647 25.3817ZM18.0647 19.3924C16.9651 19.3924 16.0706 20.2869 16.0706 21.3875C16.0706 22.4871 16.9651 23.3817 18.0647 23.3817C19.1653 23.3817 20.0598 22.4871 20.0598 21.3875C20.0598 20.2869 19.1653 19.3924 18.0647 19.3924Z" fill="#1999B2"/>
<path d="M60.6585 34C59.9985 34 59.3885 33.84 58.8285 33.52C58.2885 33.2 57.8585 32.77 57.5385 32.23C57.2185 31.67 57.0585 31.06 57.0585 30.4V28.69H59.4885V30.4C59.4885 30.72 59.5985 31 59.8185 31.24C60.0585 31.46 60.3385 31.57 60.6585 31.57H75.0585C75.3785 31.57 75.6485 31.46 75.8685 31.24C76.1085 31 76.2285 30.72 76.2285 30.4V12.4H78.6585V30.4C78.6585 31.06 78.4985 31.67 78.1785 32.23C77.8585 32.77 77.4185 33.2 76.8585 33.52C76.3185 33.84 75.7185 34 75.0585 34H60.6585ZM85.5667 34C84.9067 34 84.2967 33.84 83.7367 33.52C83.1967 33.18 82.7567 32.74 82.4167 32.2C82.0967 31.64 81.9367 31.03 81.9367 30.37V16.6H84.3967V30.37C84.3967 30.69 84.5067 30.97 84.7267 31.21C84.9667 31.43 85.2467 31.54 85.5667 31.54H96.0067C96.3267 31.54 96.6067 31.43 96.8467 31.21C97.0867 30.97 97.2067 30.69 97.2067 30.37V16.6H99.6667V30.37C99.6667 31.03 99.4967 31.64 99.1567 32.2C98.8367 32.74 98.3967 33.18 97.8367 33.52C97.2967 33.84 96.6867 34 96.0067 34H85.5667ZM102.973 34V16.6H117.073C117.733 16.6 118.333 16.77 118.873 17.11C119.433 17.43 119.873 17.87 120.193 18.43C120.533 18.97 120.703 19.57 120.703 20.23V34H118.243V20.23C118.243 19.91 118.123 19.64 117.883 19.42C117.663 19.18 117.393 19.06 117.073 19.06H106.633C106.313 19.06 106.033 19.18 105.793 19.42C105.553 19.64 105.433 19.91 105.433 20.23V34H102.973ZM126.681 40.87V38.38H137.541C137.861 38.38 138.131 38.26 138.351 38.02C138.591 37.8 138.711 37.53 138.711 37.21V34H127.101C126.441 34 125.831 33.84 125.271 33.52C124.731 33.18 124.291 32.74 123.951 32.2C123.631 31.64 123.471 31.03 123.471 30.37V20.23C123.471 19.57 123.631 18.97 123.951 18.43C124.291 17.87 124.731 17.43 125.271 17.11C125.831 16.77 126.441 16.6 127.101 16.6H137.541C138.221 16.6 138.831 16.77 139.371 17.11C139.931 17.43 140.371 17.87 140.691 18.43C141.011 18.97 141.171 19.57 141.171 20.23V37.21C141.171 37.89 141.011 38.5 140.691 39.04C140.371 39.6 139.931 40.04 139.371 40.36C138.831 40.7 138.221 40.87 137.541 40.87H126.681ZM127.101 31.54H137.541C137.861 31.54 138.131 31.43 138.351 31.21C138.591 30.97 138.711 30.69 138.711 30.37V20.23C138.711 19.91 138.591 19.64 138.351 19.42C138.131 19.18 137.861 19.06 137.541 19.06H127.101C126.781 19.06 126.501 19.18 126.261 19.42C126.041 19.64 125.931 19.91 125.931 20.23V30.37C125.931 30.69 126.041 30.97 126.261 31.21C126.501 31.43 126.781 31.54 127.101 31.54ZM144.34 34V16.6H167.32C168 16.6 168.61 16.77 169.15 17.11C169.71 17.43 170.15 17.87 170.47 18.43C170.79 18.97 170.95 19.57 170.95 20.23V34H168.52V20.23C168.52 19.91 168.4 19.64 168.16 19.42C167.92 19.18 167.64 19.06 167.32 19.06H160.09C159.77 19.06 159.49 19.18 159.25 19.42C159.03 19.64 158.92 19.91 158.92 20.23V34H156.43V20.23C156.43 19.91 156.31 19.64 156.07 19.42C155.85 19.18 155.58 19.06 155.26 19.06H148C147.68 19.06 147.4 19.18 147.16 19.42C146.94 19.64 146.83 19.91 146.83 20.23V34H144.34ZM173.666 34V10.9H176.126V16.6H187.766C188.426 16.6 189.026 16.77 189.566 17.11C190.126 17.43 190.566 17.87 190.886 18.43C191.226 18.97 191.396 19.57 191.396 20.23V34H188.936V20.23C188.936 19.91 188.816 19.64 188.576 19.42C188.356 19.18 188.086 19.06 187.766 19.06H177.326C177.006 19.06 176.726 19.18 176.486 19.42C176.246 19.64 176.126 19.91 176.126 20.23V34H173.666ZM197.421 34C196.761 34 196.151 33.84 195.591 33.52C195.051 33.18 194.611 32.74 194.271 32.2C193.951 31.64 193.791 31.03 193.791 30.37V24.07H209.031V20.23C209.031 19.91 208.911 19.64 208.671 19.42C208.451 19.18 208.181 19.06 207.861 19.06H193.791V16.6H207.861C208.541 16.6 209.151 16.77 209.691 17.11C210.251 17.43 210.691 17.87 211.011 18.43C211.351 18.97 211.521 19.57 211.521 20.23V34H197.421ZM197.421 31.54H209.031V26.53H196.251V30.37C196.251 30.69 196.361 30.97 196.581 31.21C196.821 31.43 197.101 31.54 197.421 31.54Z" fill="#FAC0B2"/>
</svg>
